<?xml version="1.0" encoding="UTF-8"?>
<svg version="1.1" xmlns="http://www.w3.org/2000/svg" width="500" height="500">
<path d="M0 0 C0.86367188 -0.00257813 1.72734375 -0.00515625 2.6171875 -0.0078125 C4.94043358 0.11522545 6.88839029 0.52837325 9.125 1.125 C10.05344669 8.21592478 10.2856363 15.16137899 10.29296875 22.30859375 C10.29796135 24.01366844 10.29796135 24.01366844 10.30305481 25.75318909 C10.30809075 28.13908486 10.31046417 30.52498759 10.31030273 32.91088867 C10.31250781 36.57547304 10.33074907 40.23976492 10.34960938 43.90429688 C10.3525402 46.22656147 10.35452707 48.54882749 10.35546875 50.87109375 C10.36265427 51.96997421 10.36983978 53.06885468 10.37724304 54.20103455 C10.37416641 55.21291336 10.37108978 56.22479218 10.36791992 57.26733398 C10.36934494 58.15952133 10.37076996 59.05170868 10.37223816 59.97093201 C10.125 62.125 10.125 62.125 8.125 64.125 C5.54435871 64.26997985 3.07556116 64.31177545 0.5 64.25 C-0.55960938 64.23646484 -0.55960938 64.23646484 -1.640625 64.22265625 C-3.38556098 64.19907603 -5.13032295 64.16320461 -6.875 64.125 C-6.875 63.465 -6.875 62.805 -6.875 62.125 C-8.1434375 62.4653125 -8.1434375 62.4653125 -9.4375 62.8125 C-13.7588457 63.20534961 -16.08790995 62.16420233 -19.875 60.125 C-20.535 59.135 -21.195 58.145 -21.875 57.125 C-22.865 57.785 -23.855 58.445 -24.875 59.125 C-24.875 60.115 -24.875 61.105 -24.875 62.125 C-28.64406687 64.63771124 -32.51492025 64.43328847 -36.875 64.125 C-38.050625 63.8775 -38.050625 63.8775 -39.25 63.625 C-41.83392581 63.13282365 -44.06331563 63.09304646 -46.6875 63.125 C-58.51256527 63.17779047 -58.51256527 63.17779047 -62.625 60 C-68.00942363 53.11990314 -70.7322518 46.92311053 -69.875 38.125 C-67.59688218 32.26698274 -64.59463587 28.97621628 -59.05078125 25.98046875 C-49.07376282 22.05772721 -36.33986865 24.4134765 -25.875 25.125 C-25.09727595 22.79182784 -24.45084432 20.51064077 -23.875 18.125 C-24.205 18.125 -24.535 18.125 -24.875 18.125 C-24.91754356 16.12545254 -24.91580783 14.12458364 -24.875 12.125 C-23.875 11.125 -23.875 11.125 -22.125 11.09765625 C-21.3825 11.12730469 -20.64 11.15695313 -19.875 11.1875 C-14.98317943 11.25816835 -10.58586456 10.37232111 -5.875 9.125 C-6.1534375 10.671875 -6.1534375 10.671875 -6.4375 12.25 C-7.09558688 16.49129992 -7.09558688 16.49129992 -5.875 22.125 C-5.875 17.175 -5.875 12.225 -5.875 7.125 C-6.205 7.125 -6.535 7.125 -6.875 7.125 C-6.875 5.145 -6.875 3.165 -6.875 1.125 C-4.41490037 -0.10504981 -2.74327194 -0.00814027 0 0 Z M-67.875 36.125 C-66.875 38.125 -66.875 38.125 -66.875 38.125 Z M-49.875 36.125 C-50.535 37.445 -51.195 38.765 -51.875 40.125 C-52.535 40.125 -53.195 40.125 -53.875 40.125 C-54.29453254 45.13093542 -54.29453254 45.13093542 -52.25 49.5625 C-49.11816508 51.62291771 -47.55955227 51.8017545 -43.875 51.125 C-40.79166667 49.20833333 -40.79166667 49.20833333 -38.875 46.125 C-38.80858446 42.27289873 -39.00270843 40.12651995 -41.5625 37.1875 C-44.46586906 35.85351962 -46.71630576 35.90963448 -49.875 36.125 Z M-5.875 36.125 C-8.20714424 39.76897537 -8.10664058 42.87825612 -7.875 47.125 C-7.545 48.115 -7.215 49.105 -6.875 50.125 C-6.215 50.125 -5.555 50.125 -4.875 50.125 C-4.875 45.505 -4.875 40.885 -4.875 36.125 C-5.205 36.125 -5.535 36.125 -5.875 36.125 Z M-68.875 39.125 C-68.875 41.765 -68.875 44.405 -68.875 47.125 C-68.545 47.125 -68.215 47.125 -67.875 47.125 C-67.875 44.485 -67.875 41.845 -67.875 39.125 C-68.205 39.125 -68.535 39.125 -68.875 39.125 Z M-23.875 39.125 C-23.875 43.745 -23.875 48.365 -23.875 53.125 C-23.545 53.125 -23.215 53.125 -22.875 53.125 C-22.875 48.505 -22.875 43.885 -22.875 39.125 C-23.205 39.125 -23.535 39.125 -23.875 39.125 Z M-9.875 47.125 C-8.875 49.125 -8.875 49.125 -8.875 49.125 Z " fill="#100F0F" transform="translate(263.875,203.875)"/>
<path d="M0 0 C1.09054687 0.02320313 2.18109375 0.04640625 3.3046875 0.0703125 C4.40039062 0.08835938 5.49609375 0.10640625 6.625 0.125 C7.46804688 0.14820313 8.31109375 0.17140625 9.1796875 0.1953125 C9.1796875 0.8553125 9.1796875 1.5153125 9.1796875 2.1953125 C10.1696875 2.1953125 11.1596875 2.1953125 12.1796875 2.1953125 C13.81603906 5.46801562 13.2592531 8.80291456 13.0546875 12.3828125 C11.55410382 15.49116441 9.33855896 16.08385773 6.1796875 17.1953125 C2.0114775 17.1953125 -0.0217341 16.85055631 -3.2578125 14.1953125 C-5.32911809 10.21840577 -5.56640464 6.61113689 -4.8203125 2.1953125 C-2.8203125 0.1953125 -2.8203125 0.1953125 0 0 Z " fill="#222120" transform="translate(289.8203125,249.8046875)"/>
<path d="M0 0 C0.99 0 1.98 0 3 0 C3.92844669 7.09092478 4.1606363 14.03637899 4.16796875 21.18359375 C4.17129715 22.32031021 4.17462555 23.45702667 4.17805481 24.62818909 C4.18309075 27.01408486 4.18546417 29.39998759 4.18530273 31.78588867 C4.18750781 35.45047304 4.20574907 39.11476492 4.22460938 42.77929688 C4.2275402 45.10156147 4.22952707 47.42382749 4.23046875 49.74609375 C4.23765427 50.84497421 4.24483978 51.94385468 4.25224304 53.07603455 C4.24916641 54.08791336 4.24608978 55.09979218 4.24291992 56.14233398 C4.24434494 57.03452133 4.24576996 57.92670868 4.24723816 58.84593201 C4 61 4 61 2 63 C-0.58064129 63.14497985 -3.04943884 63.18677545 -5.625 63.125 C-6.33140625 63.11597656 -7.0378125 63.10695313 -7.765625 63.09765625 C-9.51056098 63.07407603 -11.25532295 63.03820461 -13 63 C-12.67 62.01 -12.34 61.02 -12 60 C-7.38 60 -2.76 60 2 60 C2 40.53 2 21.06 2 1 C1.34 0.67 0.68 0.34 0 0 Z " fill="#FFFFFF" transform="translate(270,205)"/>
<path d="M0 0 C0.91007812 0.00902344 1.82015625 0.01804688 2.7578125 0.02734375 C3.80582031 0.04474609 3.80582031 0.04474609 4.875 0.0625 C4.875 0.3925 4.875 0.7225 4.875 1.0625 C0.42 1.5575 0.42 1.5575 -4.125 2.0625 C-4.125 9.9825 -4.125 17.9025 -4.125 26.0625 C-6.435 26.0625 -8.745 26.0625 -11.125 26.0625 C-11.125 21.7725 -11.125 17.4825 -11.125 13.0625 C-15.085 13.0625 -19.045 13.0625 -23.125 13.0625 C-23.455 14.7125 -23.785 16.3625 -24.125 18.0625 C-24.455 18.0625 -24.785 18.0625 -25.125 18.0625 C-25.16754356 16.06295254 -25.16580783 14.06208364 -25.125 12.0625 C-24.125 11.0625 -24.125 11.0625 -22.375 11.03515625 C-21.6325 11.06480469 -20.89 11.09445313 -20.125 11.125 C-15.23317943 11.19566835 -10.83586456 10.30982111 -6.125 9.0625 C-6.310625 10.09375 -6.49625 11.125 -6.6875 12.1875 C-7.34558688 16.42879992 -7.34558688 16.42879992 -6.125 22.0625 C-6.125 17.1125 -6.125 12.1625 -6.125 7.0625 C-6.455 7.0625 -6.785 7.0625 -7.125 7.0625 C-7.125 5.0825 -7.125 3.1025 -7.125 1.0625 C-4.60024538 -0.19987731 -2.81299534 -0.03606404 0 0 Z " fill="#FDFDFA" transform="translate(264.125,203.9375)"/>
<path d="M0 0 C1.32 0 2.64 0 4 0 C3.98839844 1.27617187 3.97679687 2.55234375 3.96484375 3.8671875 C3.95546583 5.53645687 3.94636563 7.20572783 3.9375 8.875 C3.92912109 9.71675781 3.92074219 10.55851563 3.91210938 11.42578125 C3.90888672 12.23144531 3.90566406 13.03710938 3.90234375 13.8671875 C3.89710693 14.61081543 3.89187012 15.35444336 3.88647461 16.12060547 C3.88213364 18.09132568 3.88213364 18.09132568 5 20 C4 23 4 23 3 24 C2.67 24.99 2.34 25.98 2 27 C-1.56795699 29.71164732 -5.72918335 29.28983586 -10 29 C-12.75 28.5625 -12.75 28.5625 -15 28 C-15.763125 27.814375 -16.52625 27.62875 -17.3125 27.4375 C-17.869375 27.293125 -18.42625 27.14875 -19 27 C-17.1875 25.4375 -17.1875 25.4375 -15 24 C-14.01 24.33 -13.02 24.66 -12 25 C-8.04 25.33 -4.08 25.66 0 26 C0 17.42 0 8.84 0 0 Z " fill="#DCDCD6" transform="translate(237,239)"/>
<path d="M0 0 C2.31 0 4.62 0 7 0 C7 5.28 7 10.56 7 16 C5.02 16 3.04 16 1 16 C-0.50156874 12.99686252 -0.09281204 10.20932478 -0.0625 6.875 C-0.05347656 5.59367188 -0.04445312 4.31234375 -0.03515625 2.9921875 C-0.02355469 2.00476563 -0.01195312 1.01734375 0 0 Z M5 1 C2.66785576 4.64397537 2.76835942 7.75325612 3 12 C3.33 12.99 3.66 13.98 4 15 C4.66 15 5.32 15 6 15 C6 10.38 6 5.76 6 1 C5.67 1 5.34 1 5 1 Z M1 12 C2 14 2 14 2 14 Z " fill="#C0BEBC" transform="translate(253,239)"/>
<path d="M0 0 C0.99 0 1.98 0 3 0 C2.98839844 1.20398438 2.97679687 2.40796875 2.96484375 3.6484375 C2.95546566 5.22395679 2.94636548 6.79947775 2.9375 8.375 C2.92912109 9.1690625 2.92074219 9.963125 2.91210938 10.78125 C2.76959849 15.02392222 2.76959849 15.02392222 4 19 C3.67 19.99 3.34 20.98 3 22 C2.34 22 1.68 22 1 22 C-0.20029908 19.59940183 -0.11459743 18.10639351 -0.09765625 15.4296875 C-0.09443359 14.53378906 -0.09121094 13.63789063 -0.08789062 12.71484375 C-0.07951172 11.77769531 -0.07113281 10.84054688 -0.0625 9.875 C-0.05798828 8.93011719 -0.05347656 7.98523438 -0.04882812 7.01171875 C-0.03702357 4.67441613 -0.02055759 2.33723939 0 0 Z " fill="#FFFFFF" transform="translate(238,240)"/>
<path d="M0 0 C0.91007812 0.00902344 1.82015625 0.01804688 2.7578125 0.02734375 C3.45648438 0.03894531 4.15515625 0.05054688 4.875 0.0625 C4.875 0.3925 4.875 0.7225 4.875 1.0625 C0.42 1.5575 0.42 1.5575 -4.125 2.0625 C-4.125 9.9825 -4.125 17.9025 -4.125 26.0625 C-4.455 26.0625 -4.785 26.0625 -5.125 26.0625 C-5.455 19.7925 -5.785 13.5225 -6.125 7.0625 C-6.455 7.0625 -6.785 7.0625 -7.125 7.0625 C-7.125 5.0825 -7.125 3.1025 -7.125 1.0625 C-4.60024538 -0.19987731 -2.81299534 -0.03606404 0 0 Z " fill="#C8C6C4" transform="translate(264.125,203.9375)"/>
<path d="M0 0 C0.33 0.99 0.66 1.98 1 3 C-1 5 -1 5 -4.4765625 5.1953125 C-5.85950968 5.18201493 -7.24238654 5.15816232 -8.625 5.125 C-9.33140625 5.11597656 -10.0378125 5.10695313 -10.765625 5.09765625 C-12.51056098 5.07407603 -14.25532295 5.03820461 -16 5 C-15.67 4.01 -15.34 3.02 -15 2 C-14.00097656 1.93941406 -13.00195312 1.87882812 -11.97265625 1.81640625 C-10.68230469 1.73261719 -9.39195312 1.64882813 -8.0625 1.5625 C-6.77472656 1.48128906 -5.48695313 1.40007812 -4.16015625 1.31640625 C-1.13976043 1.35080812 -1.13976043 1.35080812 0 0 Z " fill="#FAF9F4" transform="translate(273,263)"/>
<path d="M0 0 C3.61328125 0.03255208 7.2265625 0.06510417 10.83984375 0.09765625 C10.83984375 5.04765625 10.83984375 9.99765625 10.83984375 15.09765625 C10.50984375 15.09765625 10.17984375 15.09765625 9.83984375 15.09765625 C9.83984375 10.80765625 9.83984375 6.51765625 9.83984375 2.09765625 C5.87984375 2.09765625 1.91984375 2.09765625 -2.16015625 2.09765625 C-2.49015625 3.74765625 -2.82015625 5.39765625 -3.16015625 7.09765625 C-3.49015625 7.09765625 -3.82015625 7.09765625 -4.16015625 7.09765625 C-4.20269981 5.09810879 -4.20096408 3.09723989 -4.16015625 1.09765625 C-3.16015625 0.09765625 -3.16015625 0.09765625 0 0 Z " fill="#DEDEDB" transform="translate(243.16015625,214.90234375)"/>
<path d="M0 0 C2 2 2 2 2 4 C0.86820313 4.06058594 -0.26359375 4.12117187 -1.4296875 4.18359375 C-2.91147145 4.26799917 -4.3932416 4.35264717 -5.875 4.4375 C-6.99455078 4.49647461 -6.99455078 4.49647461 -8.13671875 4.55664062 C-12.19986864 4.71573624 -12.19986864 4.71573624 -16 6 C-18.625 5.0625 -18.625 5.0625 -21 4 C-20.67 3.34 -20.34 2.68 -20 2 C-13.73 2.33 -7.46 2.66 -1 3 C-0.67 2.01 -0.34 1.02 0 0 Z " fill="#EEECEC" transform="translate(239,226)"/>
<path d="M0 0 C0.99 0 1.98 0 3 0 C4.35439668 2.70879335 4.06501451 5.00933268 4 8 C3.01 8.495 3.01 8.495 2 9 C1.34 6.03 0.68 3.06 0 0 Z " fill="#F0EFED" transform="translate(299,252)"/>
<path d="M0 0 C0.99 0 1.98 0 3 0 C2.42655063 2.86724686 2.1385485 3.8614515 0 6 C-0.38218767 4.34385343 -0.71395102 2.67542976 -1 1 C-0.67 0.67 -0.34 0.34 0 0 Z " fill="#FFFFFF" transform="translate(255,240)"/>
<path d="M0 0 C2 2 2 2 2 4 C-1.96 4 -5.92 4 -10 4 C-10 3.67 -10 3.34 -10 3 C-7.03 3 -4.06 3 -1 3 C-0.67 2.01 -0.34 1.02 0 0 Z " fill="#F5F5F5" transform="translate(239,226)"/>
<path d="M0 0 C0.66 0 1.32 0 2 0 C1.5359375 0.7734375 1.5359375 0.7734375 1.0625 1.5625 C-0.29059287 4.66665423 -0.61359424 7.65115007 -1 11 C-1.33 11 -1.66 11 -2 11 C-2.05399736 9.54207116 -2.09279177 8.08357288 -2.125 6.625 C-2.15980469 5.40683594 -2.15980469 5.40683594 -2.1953125 4.1640625 C-2 2 -2 2 0 0 Z " fill="#E3E2E1" transform="translate(287,250)"/>
<path d="" fill="#FFFFFF" transform="translate(0,0)"/>
<path d="" fill="#FFFEFF" transform="translate(0,0)"/>
<path d="" fill="#FFFFFF" transform="translate(0,0)"/>
<path d="" fill="#FFFFFF" transform="translate(0,0)"/>
<path d="" fill="#FFFFFF" transform="translate(0,0)"/>
<path d="" fill="#FFFFFF" transform="translate(0,0)"/>
<path d="" fill="#FFFFFF" transform="translate(0,0)"/>
<path d="" fill="#FFFFFF" transform="translate(0,0)"/>
<path d="" fill="#FFFFFF" transform="translate(0,0)"/>
<path d="" fill="#FFFFFF" transform="translate(0,0)"/>
<path d="" fill="#FFFFFF" transform="translate(0,0)"/>
<path d="" fill="#FFFFFF" transform="translate(0,0)"/>
<path d="" fill="#FFFFFF" transform="translate(0,0)"/>
<path d="" fill="#FFFFFF" transform="translate(0,0)"/>
<path d="" fill="#FFFFFF" transform="translate(0,0)"/>
<path d="" fill="#FFFFFF" transform="translate(0,0)"/>
<path d="" fill="#FFFFFF" transform="translate(0,0)"/>
<path d="" fill="#FFFFFF" transform="translate(0,0)"/>
<path d="" fill="#FFFFFF" transform="translate(0,0)"/>
<path d="" fill="#FFFFFF" transform="translate(0,0)"/>
<path d="" fill="#FFFFFF" transform="translate(0,0)"/>
<path d="" fill="#FFFFFF" transform="translate(0,0)"/>
<path d="" fill="#FFFFFF" transform="translate(0,0)"/>
<path d="" fill="#FFFFFF" transform="translate(0,0)"/>
<path d="" fill="#FFFFFF" transform="translate(0,0)"/>
<path d="" fill="#FFFFFF" transform="translate(0,0)"/>
<path d="" fill="#FFFFFF" transform="translate(0,0)"/>
<path d="" fill="#FFFFFF" transform="translate(0,0)"/>
<path d="" fill="#FFFFFF" transform="translate(0,0)"/>
<path d="" fill="#FFFFFF" transform="translate(0,0)"/>
<path d="" fill="#FFFFFF" transform="translate(0,0)"/>
<path d="" fill="#FFFFFF" transform="translate(0,0)"/>
<path d="" fill="#FFFFFF" transform="translate(0,0)"/>
<path d="" fill="#FFFFFF" transform="translate(0,0)"/>
<path d="" fill="#FFFFFF" transform="translate(0,0)"/>
<path d="" fill="#FFFFFF" transform="translate(0,0)"/>
<path d="" fill="#FFFFFF" transform="translate(0,0)"/>
<path d="" fill="#FFFFFF" transform="translate(0,0)"/>
<path d="" fill="#FFFFFF" transform="translate(0,0)"/>
<path d="" fill="#FFFFFF" transform="translate(0,0)"/>
<path d="" fill="#FFFFFF" transform="translate(0,0)"/>
<path d="" fill="#FFFFFF" transform="translate(0,0)"/>
<path d="" fill="#FFFFFF" transform="translate(0,0)"/>
<path d="" fill="#FFFFFF" transform="translate(0,0)"/>
<path d="" fill="#FFFFFF" transform="translate(0,0)"/>
<path d="" fill="#FFFFFF" transform="translate(0,0)"/>
<path d="" fill="#FFFFFF" transform="translate(0,0)"/>
<path d="" fill="#FFFFFF" transform="translate(0,0)"/>
<path d="" fill="#FFFFFF" transform="translate(0,0)"/>
<path d="" fill="#FFFFFF" transform="translate(0,0)"/>
<path d="" fill="#FFFFFF" transform="translate(0,0)"/>
<path d="" fill="#FFFFFF" transform="translate(0,0)"/>
<path d="" fill="#FFFFFF" transform="translate(0,0)"/>
<path d="" fill="#FFFFFF" transform="translate(0,0)"/>
<path d="" fill="#FFFFFF" transform="translate(0,0)"/>
<path d="" fill="#FFFFFF" transform="translate(0,0)"/>
<path d="" fill="#FFFFFF" transform="translate(0,0)"/>
<path d="" fill="#FFFFFF" transform="translate(0,0)"/>
<path d="" fill="#FFFFFF" transform="translate(0,0)"/>
<path d="" fill="#FFFFFF" transform="translate(0,0)"/>
<path d="" fill="#FFFFFF" transform="translate(0,0)"/>
<path d="" fill="#FFFFFF" transform="translate(0,0)"/>
<path d="" fill="#FFFFFF" transform="translate(0,0)"/>
<path d="" fill="#FFFFFF" transform="translate(0,0)"/>
<path d="" fill="#FFFFFF" transform="translate(0,0)"/>
<path d="" fill="#FFFF00" transform="translate(0,0)"/>
<path d="" fill="#FFFFFF" transform="translate(0,0)"/>
<path d="" fill="#FFFFFF" transform="translate(0,0)"/>
<path d="" fill="#FFFFFF" transform="translate(0,0)"/>
<path d="" fill="#FFFFFF" transform="translate(0,0)"/>
<path d="" fill="#FFFFFF" transform="translate(0,0)"/>
<path d="" fill="#FFFFFF" transform="translate(0,0)"/>
<path d="" fill="#FFFFFF" transform="translate(0,0)"/>
<path d="" fill="#FFFFFF" transform="translate(0,0)"/>
<path d="" fill="#FFFFFF" transform="translate(0,0)"/>
<path d="" fill="#FFFFFF" transform="translate(0,0)"/>
<path d="" fill="#FFFFFF" transform="translate(0,0)"/>
<path d="" fill="#FFFFFF" transform="translate(0,0)"/>
<path d="" fill="#FFFFFF" transform="translate(0,0)"/>
<path d="" fill="#FFFFFF" transform="translate(0,0)"/>
<path d="" fill="#FFFFFF" transform="translate(0,0)"/>
<path d="" fill="#FFFFFF" transform="translate(0,0)"/>
<path d="" fill="#FFFFFF" transform="translate(0,0)"/>
<path d="" fill="#FFFFFF" transform="translate(0,0)"/>
<path d="" fill="#FFFFFF" transform="translate(0,0)"/>
<path d="" fill="#FFFFFF" transform="translate(0,0)"/>
<path d="" fill="#FFFFFF" transform="translate(0,0)"/>
<path d="" fill="#FFFFFF" transform="translate(0,0)"/>
<path d="" fill="#FFFFFF" transform="translate(0,0)"/>
<path d="" fill="#FFFFFF" transform="translate(0,0)"/>
<path d="" fill="#FFFFFF" transform="translate(0,0)"/>
<path d="" fill="#FFFFFF" transform="translate(0,0)"/>
<path d="" fill="#FFFFFF" transform="translate(0,0)"/>
<path d="" fill="#FFFFFF" transform="translate(0,0)"/>
<path d="" fill="#FFFFFF" transform="translate(0,0)"/>
<path d="" fill="#FFFFFF" transform="translate(0,0)"/>
<path d="" fill="#FFFFFF" transform="translate(0,0)"/>
<path d="" fill="#FFFFFF" transform="translate(0,0)"/>
<path d="" fill="#FFFFFF" transform="translate(0,0)"/>
<path d="" fill="#FFFFFF" transform="translate(0,0)"/>
<path d="" fill="#FFFFFF" transform="translate(0,0)"/>
<path d="" fill="#FFFFFF" transform="translate(0,0)"/>
<path d="" fill="#FFFFFF" transform="translate(0,0)"/>
<path d="" fill="#FFFFFF" transform="translate(0,0)"/>
<path d="" fill="#FFFFFF" transform="translate(0,0)"/>
<path d="" fill="#FFFFFF" transform="translate(0,0)"/>
<path d="" fill="#FFFFFF" transform="translate(0,0)"/>
</svg>
